# xmcd
#
# Track frame offsets:
#	150
#	16525
#	32717
#	53247
#	71305
#	85547
#	101545
#	119502
#	142267
#	158430
#	172387
#	190117
#
# Disc length: 2773 seconds
#
# Revision: 13
# Processed by: cddbd v1.5.2PL0 Copyright (c) Steve Scherf et al.
# Submitted via: EasyCDDAExtractor 15.3.0.1
#
DISCID=960ad30c
DTITLE=Christina Aguilera
DYEAR=1999
DGENRE=Pop
TTITLE0=Genie In A Bottle
TTITLE1=What A Girl Wants
TTITLE2=I Turn To You
TTITLE3=So Emotional
TTITLE4=Come On Over (All I Want Is You)
TTITLE5=Reflection
TTITLE6=Love For All Seasons
TTITLE7=Somebody's Somebody
TTITLE8=When You Put Your Hands On Me
TTITLE9=Blessed
TTITLE10=Love Will Find A Way
TTITLE11=Obvious
EXTD=
EXTT0=
EXTT1=
EXTT2=
EXTT3=
EXTT4=
EXTT5=
EXTT6=
EXTT7=
EXTT8=
EXTT9=
EXTT10=
EXTT11=
PLAYORDER=
